<svg width="315" height="52" viewBox="0 0 315 52" fill="none" xmlns="http://www.w3.org/2000/svg">
<path fill-rule="evenodd" clip-rule="evenodd" d="M0 39L17.4167 41.1667C34.8333 43.3333 69.6667 47.6667 104.5 43.3333C139.333 39 174.167 26 209 17.3333C243.833 8.66667 278.667 4.33333 313.5 10.8333C348.333 17.3333 383.167 34.6667 400.583 43.3333L418 52V9.53674e-07H400.583C383.167 9.53674e-07 348.333 9.53674e-07 313.5 9.53674e-07C278.667 9.53674e-07 243.833 9.53674e-07 209 9.53674e-07C174.167 9.53674e-07 139.333 9.53674e-07 104.5 9.53674e-07C69.6667 9.53674e-07 34.8333 9.53674e-07 17.4167 9.53674e-07H0V39Z" fill="#7F22FE"/>
</svg>
